<svg id="visual" viewBox="0 0 960 500" width="960" height="500" xmlns="http://www.w3.org/2000/svg" xmlns:xlink="http://www.w3.org/1999/xlink" version="1.1"><rect x="0" y="0" width="960" height="500" fill="#5cd6d6"></rect><g transform="translate(438.2735813671673 244.12095423236622)"><path d="M128.6 -207.3C155.1 -207.3 157.2 -149.7 181.1 -105.5C204.9 -61.3 250.4 -30.7 256.4 3.4C262.3 37.5 228.6 75 179.2 75C129.9 75 65 37.5 32.5 45.9C0 54.3 0 108.7 -26 153.8C-52.1 198.9 -104.2 234.8 -111.8 212C-119.5 189.3 -82.7 107.9 -77.8 62.8C-72.9 17.7 -100 8.8 -124.9 -14.4C-149.9 -37.7 -172.8 -75.3 -173.6 -113.3C-174.3 -151.3 -152.9 -189.5 -120.3 -186C-87.7 -182.5 -43.8 -137.3 3.6 -143.5C51 -149.7 102 -207.3 128.6 -207.3" fill="#3ab4b4"></path></g></svg>