<svg id="visual" viewBox="0 0 960 200" width="960" height="200" xmlns="http://www.w3.org/2000/svg" xmlns:xlink="http://www.w3.org/1999/xlink" version="1.1"><path d="M0 115L20 122.7C40 130.3 80 145.7 120 145.5C160 145.3 200 129.7 240 124.8C280 120 320 126 360 124.8C400 123.7 440 115.3 480 111.3C520 107.3 560 107.7 600 114.2C640 120.7 680 133.3 720 141C760 148.7 800 151.3 840 147.8C880 144.3 920 134.7 940 129.8L960 125L960 0L940 0C920 0 880 0 840 0C800 0 760 0 720 0C680 0 640 0 600 0C560 0 520 0 480 0C440 0 400 0 360 0C320 0 280 0 240 0C200 0 160 0 120 0C80 0 40 0 20 0L0 0Z" fill="#272727"></path><path d="M0 89L20 90.7C40 92.3 80 95.7 120 97.2C160 98.7 200 98.3 240 103.5C280 108.7 320 119.3 360 117.7C400 116 440 102 480 96.2C520 90.3 560 92.7 600 95.2C640 97.7 680 100.3 720 107C760 113.7 800 124.3 840 121.8C880 119.3 920 103.7 940 95.8L960 88L960 0L940 0C920 0 880 0 840 0C800 0 760 0 720 0C680 0 640 0 600 0C560 0 520 0 480 0C440 0 400 0 360 0C320 0 280 0 240 0C200 0 160 0 120 0C80 0 40 0 20 0L0 0Z" fill="#384e4e"></path><path d="M0 90L20 85.3C40 80.7 80 71.3 120 68.5C160 65.7 200 69.3 240 74.5C280 79.7 320 86.3 360 87.8C400 89.3 440 85.7 480 85.8C520 86 560 90 600 89.5C640 89 680 84 720 78.3C760 72.7 800 66.3 840 63.3C880 60.3 920 60.7 940 60.8L960 61L960 0L940 0C920 0 880 0 840 0C800 0 760 0 720 0C680 0 640 0 600 0C560 0 520 0 480 0C440 0 400 0 360 0C320 0 280 0 240 0C200 0 160 0 120 0C80 0 40 0 20 0L0 0Z" fill="#477979"></path><path d="M0 77L20 72.3C40 67.7 80 58.3 120 52.2C160 46 200 43 240 44.5C280 46 320 52 360 52C400 52 440 46 480 43.3C520 40.7 560 41.3 600 45.2C640 49 680 56 720 56.8C760 57.7 800 52.3 840 52.5C880 52.7 920 58.3 940 61.2L960 64L960 0L940 0C920 0 880 0 840 0C800 0 760 0 720 0C680 0 640 0 600 0C560 0 520 0 480 0C440 0 400 0 360 0C320 0 280 0 240 0C200 0 160 0 120 0C80 0 40 0 20 0L0 0Z" fill="#53a6a6"></path><path d="M0 44L20 44.2C40 44.3 80 44.7 120 41.8C160 39 200 33 240 29.3C280 25.7 320 24.3 360 26.5C400 28.7 440 34.3 480 38.3C520 42.3 560 44.7 600 45.3C640 46 680 45 720 42.5C760 40 800 36 840 35.5C880 35 920 38 940 39.5L960 41L960 0L940 0C920 0 880 0 840 0C800 0 760 0 720 0C680 0 640 0 600 0C560 0 520 0 480 0C440 0 400 0 360 0C320 0 280 0 240 0C200 0 160 0 120 0C80 0 40 0 20 0L0 0Z" fill="#5cd6d6"></path></svg>